<?xml version="1.0" encoding="utf-8"?>
<!-- Generator: Adobe Illustrator 22.1.0, SVG Export Plug-In . SVG Version: 6.00 Build 0)  -->
<svg version="1.1" id="Calque_1" xmlns="http://www.w3.org/2000/svg" xmlns:xlink="http://www.w3.org/1999/xlink" x="0px" y="0px"
	 viewBox="0 0 71.7 38" style="enable-background:new 0 0 71.7 38;" xml:space="preserve">
<style type="text/css">
	.st0{fill:#B8519C;}
	.st1{fill:url(#SVGID_1_);}
	.st2{fill:url(#SVGID_2_);}
	.st3{fill:url(#SVGID_3_);}
	.st4{fill:url(#SVGID_4_);}
	.st5{fill:url(#SVGID_5_);}
	.st6{fill:url(#SVGID_6_);}
	.st7{fill:url(#SVGID_7_);}
	.st8{fill:url(#SVGID_8_);}
	.st9{fill:url(#SVGID_9_);}
	.st10{fill:url(#SVGID_10_);}
	.st11{fill:url(#SVGID_11_);}
	.st12{fill:url(#SVGID_12_);}
	.st13{fill:url(#SVGID_13_);}
	.st14{fill:url(#SVGID_14_);}
	.st15{fill:url(#SVGID_15_);}
</style>
<g>
	<path class="st0" d="M9.9,4.2C9.5,4.8,9.1,5.4,8.7,6C8.2,6.9,8,7.8,8.1,8.8c0.1,0.7,0.3,1.3,0.7,1.8c0.7,0.9,1.4,1.7,2.2,2.5
		c1,1,2,2,2.9,3.1c0.8,0.9,1.3,1.9,1.5,3.1c0.3,1.8-0.3,3.2-1.9,4.1c-0.1,0-0.1,0.1-0.2,0.1c0.1,0,0.1,0,0.2,0
		c1.4-0.6,2.4-1.4,2.7-2.9c0.3-1.2,0-2.3-0.5-3.4c-0.6-1.5-1.7-2.7-2.8-3.8c-0.9-0.8-1.7-1.6-2.6-2.4c-0.6-0.6-1.1-1.3-1.2-2.2
		C9,8,9.2,7.2,9.5,6.5c0.6-1.3,1.4-2.5,2.4-3.6c0.6-0.7,1.3-1.4,2-2.1c0,0,0,0,0.1,0.1c-0.4,0.5-0.8,1-1.1,1.5
		c-0.4,0.5-0.7,1.1-1.1,1.6c3.5-0.1,6.4,1.2,8.5,4c1.5,2,2.2,4.3,2,6.7c-0.5,5.3-4.7,9.2-9.9,9.2S3.1,20,2.6,15.2
		C1.6,9.4,5.5,5.1,9.9,4.2z M7.6,7.5L7.5,7.6c-0.9,1.8-0.6,3.8,0.8,5.3c0.9,0.9,1.8,1.8,2.7,2.8c0.8,0.9,1.6,1.8,2.3,2.7
		c0.8,1.1,0.8,2.3,0.3,3.5c-0.4,0.8-0.9,1.3-1.6,1.8c0.2-0.1,0.4-0.1,0.6-0.2c1.3-0.7,2.1-1.8,2.1-3.3c0-0.8-0.4-1.5-0.8-2.2
		c-0.8-1.2-1.9-2.2-2.9-3.2c-0.9-0.9-1.8-1.9-2.6-2.9c-0.7-0.9-1.1-1.9-1-3C7.4,8.3,7.5,7.9,7.6,7.5z M11.9,23.5
		c0.9-0.6,1.3-2,1.1-3.1c-0.2-0.9-0.8-1.7-1.4-2.4c-0.9-0.9-1.9-1.8-2.9-2.8c-0.6-0.6-1.3-1.3-1.6-2.1C7,12.9,7,12.8,6.9,12.6
		c0,0.8,0.2,1.5,0.6,2.1C8,15.6,8.8,16.4,9.6,17c0.9,0.7,1.8,1.5,2.4,2.4c0.8,1.1,0.9,2.3,0.2,3.5C12.1,23.2,12,23.3,11.9,23.5z
		 M11.8,23.4c0-0.2,0.1-0.4,0.1-0.5c0.2-1.1-0.3-2-0.9-2.7c-1.2-1.5-2.8-2.5-4.5-3.5c0,0,0,0-0.1,0c0.1,0,0.1,0.1,0.2,0.1
		c1.1,0.9,2.2,1.7,3.2,2.6C11.1,20.5,12,21.7,11.8,23.4z"/>
	
		<linearGradient id="SVGID_1_" gradientUnits="userSpaceOnUse" x1="4.8251" y1="2255.7661" x2="4.5567" y2="2264.4431" gradientTransform="matrix(1 0 0 1 0 -2230)">
		<stop  offset="0" style="stop-color:#929496"/>
		<stop  offset="0.2152" style="stop-color:#929496"/>
		<stop  offset="0.4964" style="stop-color:#FFFFFF"/>
		<stop  offset="0.7033" style="stop-color:#929496"/>
		<stop  offset="1" style="stop-color:#000000"/>
	</linearGradient>
	<path class="st1" d="M7.8,28.8c-0.5-0.5-1.2-0.7-2.1-0.8c0.6-0.1,1.1-0.4,1.5-0.7c0.3-0.3,0.5-0.7,0.5-1.2c0-0.3-0.1-0.6-0.2-0.8
		c-0.1-0.2-0.3-0.4-0.6-0.6c-0.2-0.2-0.5-0.3-0.9-0.4c-0.3-0.1-0.7-0.1-1.2-0.1H1.1v0.1c0.5,0.1,0.7,0.4,0.7,1.1v7.2
		c0,0.6-0.2,1-0.7,1.1v0.1H5c0.5,0,1-0.1,1.4-0.2c0.4-0.1,0.8-0.3,1.1-0.6c0.3-0.3,0.5-0.6,0.7-0.9c0.2-0.4,0.3-0.7,0.3-1.2
		C8.6,29.9,8.3,29.3,7.8,28.8z M2.8,24.3h2.1c0.3,0,0.6,0,0.8,0.1c0.2,0.1,0.4,0.2,0.6,0.4c0.2,0.2,0.3,0.3,0.4,0.6
		c0.1,0.2,0.1,0.4,0.1,0.7c0,0.3-0.1,0.5-0.2,0.7s-0.2,0.4-0.4,0.6c-0.2,0.2-0.4,0.3-0.7,0.4c-0.3,0.1-0.6,0.2-0.9,0.2H2.7v-3.7
		C2.7,24.4,2.8,24.4,2.8,24.3z M7.5,31.8c-0.1,0.3-0.3,0.6-0.6,0.9C6.7,33,6.4,33.2,6,33.3c-0.3,0.1-0.7,0.2-1.1,0.2H2.8v-5.3h1.9
		c0.5,0,0.9,0.1,1.2,0.2c0.4,0.1,0.7,0.3,0.9,0.5c0.3,0.2,0.5,0.5,0.6,0.8s0.2,0.7,0.2,1.1C7.7,31.1,7.7,31.5,7.5,31.8z"/>
	
		<linearGradient id="SVGID_2_" gradientUnits="userSpaceOnUse" x1="20.4702" y1="2256.25" x2="20.2019" y2="2264.927" gradientTransform="matrix(1 0 0 1 0 -2230)">
		<stop  offset="0" style="stop-color:#929496"/>
		<stop  offset="0.2152" style="stop-color:#929496"/>
		<stop  offset="0.4964" style="stop-color:#FFFFFF"/>
		<stop  offset="0.7033" style="stop-color:#929496"/>
		<stop  offset="1" style="stop-color:#000000"/>
	</linearGradient>
	<path class="st2" d="M23.6,33.1c-0.1,0.1-0.1,0.1-0.2,0.1c-0.1,0-0.2,0-0.2-0.1c-0.1-0.1-0.1-0.2-0.1-0.4v-8.6L22.9,24h-1.4v0.1
		c0.2,0,0.4,0.1,0.5,0.2s0.2,0.4,0.2,0.7v2.2c-0.1-0.3-0.3-0.5-0.6-0.7s-0.7-0.3-1.2-0.3s-0.9,0.1-1.3,0.3c-0.4,0.2-0.8,0.5-1.1,0.8
		c-0.3,0.4-0.5,0.8-0.7,1.3s-0.3,1-0.3,1.6c0,0.5,0.1,0.9,0.2,1.3c0.1,0.4,0.3,0.7,0.5,1s0.5,0.5,0.8,0.6c0.3,0.2,0.6,0.2,1,0.2
		c0.3,0,0.6-0.1,0.9-0.2c0.3-0.1,0.6-0.3,0.8-0.5s0.4-0.5,0.6-0.9c0.2-0.3,0.3-0.7,0.3-1.2v1.8c0,0.3,0.1,0.5,0.2,0.7
		c0.1,0.2,0.3,0.2,0.6,0.2c0.2,0,0.3,0,0.4-0.1c0.1-0.1,0.2-0.1,0.2-0.2c0.1-0.1,0.1-0.2,0.1-0.3s0.1-0.1,0.1-0.2h-0.1
		C23.7,32.9,23.7,33,23.6,33.1z M22.2,30.1c0,0.5-0.1,0.9-0.2,1.3c-0.1,0.4-0.3,0.7-0.5,1s-0.4,0.5-0.7,0.6
		c-0.3,0.2-0.5,0.2-0.9,0.2c-0.3,0-0.6-0.1-0.8-0.2c-0.2-0.1-0.4-0.3-0.6-0.6c-0.2-0.2-0.3-0.5-0.4-0.9C18,31.2,18,30.8,18,30.3
		s0.1-1,0.2-1.5c0.1-0.5,0.3-0.8,0.6-1.2c0.2-0.3,0.5-0.6,0.8-0.8c0.3-0.2,0.7-0.3,1-0.3c0.2,0,0.4,0,0.6,0.1
		c0.2,0.1,0.4,0.2,0.5,0.3c0.1,0.1,0.3,0.3,0.3,0.4c0.1,0.2,0.1,0.3,0.1,0.5v2.3C22.1,30.1,22.2,30.1,22.2,30.1z"/>
	
		<linearGradient id="SVGID_3_" gradientUnits="userSpaceOnUse" x1="27.0325" y1="2256.4529" x2="26.7642" y2="2265.1299" gradientTransform="matrix(1 0 0 1 0 -2230)">
		<stop  offset="0" style="stop-color:#929496"/>
		<stop  offset="0.2152" style="stop-color:#929496"/>
		<stop  offset="0.4964" style="stop-color:#FFFFFF"/>
		<stop  offset="0.7033" style="stop-color:#929496"/>
		<stop  offset="1" style="stop-color:#000000"/>
	</linearGradient>
	<path class="st3" d="M28.8,26.3c-0.6,0-1,0.3-1.3,0.8h0.1c0.2-0.3,0.4-0.5,0.8-0.5c0.3,0,0.5,0.1,0.6,0.4s0.2,0.6,0.2,1
		s0,0.8-0.1,1.2s-0.2,0.9-0.3,1.3s-0.2,0.8-0.4,1.2c-0.1,0.4-0.3,0.6-0.4,0.8l-2.1-4.8c-0.2-0.4-0.2-0.7-0.2-0.9
		c0-0.2,0.2-0.3,0.5-0.3v-0.1H24v0.1c0.2,0.1,0.3,0.2,0.5,0.3c0.2,0.2,0.3,0.5,0.5,0.9l2.6,5.9c-0.1,0.3-0.3,0.7-0.5,1
		s-0.4,0.6-0.6,0.9c-0.2,0.2-0.5,0.4-0.7,0.6c-0.3,0.1-0.5,0.2-0.8,0.2s-0.6-0.1-1-0.3v1c0.3,0.1,0.5,0.1,0.7,0.1
		c0.4,0,0.8-0.1,1.1-0.4c0.3-0.2,0.6-0.5,0.8-0.9s0.4-0.7,0.6-1.1c0.2-0.4,0.3-0.7,0.4-1c0.2-0.5,0.5-1,0.8-1.6s0.6-1.1,0.8-1.7
		c0.3-0.5,0.5-1.1,0.6-1.6c0.2-0.5,0.3-0.9,0.3-1.2c0-0.4-0.1-0.7-0.3-0.9C29.5,26.4,29.2,26.3,28.8,26.3z"/>
	
		<linearGradient id="SVGID_4_" gradientUnits="userSpaceOnUse" x1="37.0904" y1="2256.6626" x2="36.8221" y2="2265.3398" gradientTransform="matrix(1 0 0 1 0 -2230)">
		<stop  offset="0" style="stop-color:#929496"/>
		<stop  offset="0.2152" style="stop-color:#929496"/>
		<stop  offset="0.4964" style="stop-color:#FFFFFF"/>
		<stop  offset="0.7033" style="stop-color:#929496"/>
		<stop  offset="1" style="stop-color:#000000"/>
	</linearGradient>
	<path class="st4" d="M40,32c-0.1,0.2-0.3,0.3-0.5,0.5S39,32.8,38.7,33c-0.3,0.1-0.6,0.2-1,0.2s-0.8-0.1-1.2-0.2
		c-0.4-0.2-0.7-0.4-0.9-0.7c-0.3-0.3-0.5-0.7-0.6-1.1s-0.2-0.9-0.2-1.4s0.1-0.9,0.2-1.3c0.1-0.4,0.3-0.8,0.5-1.1
		c0.2-0.3,0.5-0.5,0.8-0.7s0.6-0.3,0.9-0.3c0.2,0,0.4,0,0.6,0.1c0.2,0.1,0.3,0.2,0.4,0.3c0.1,0.1,0.2,0.3,0.3,0.4
		c0.1,0.2,0.1,0.3,0.2,0.4c0.1,0.1,0.1,0.2,0.2,0.3c0.1,0.1,0.2,0.1,0.3,0.1s0.2,0,0.3-0.1s0.1-0.2,0.1-0.4c0-0.2-0.1-0.4-0.2-0.5
		c-0.1-0.2-0.3-0.3-0.5-0.5c-0.2-0.1-0.5-0.2-0.8-0.3C37.8,26,37.5,26,37.2,26c-0.5,0-1,0.1-1.4,0.3c-0.4,0.2-0.8,0.4-1.1,0.8
		c-0.3,0.3-0.6,0.7-0.7,1.2c-0.2,0.4-0.3,0.9-0.3,1.5c0,0.5,0.1,1,0.3,1.5s0.4,0.8,0.7,1.2c0.3,0.3,0.7,0.6,1.1,0.8
		c0.4,0.2,0.9,0.3,1.4,0.3c0.4,0,0.8-0.1,1.2-0.2c0.3-0.1,0.6-0.3,0.9-0.5c0.3-0.2,0.5-0.4,0.6-0.6c0.2-0.2,0.3-0.4,0.4-0.6h-0.1
		C40.3,31.7,40.2,31.8,40,32z"/>
	
		<linearGradient id="SVGID_5_" gradientUnits="userSpaceOnUse" x1="43.885" y1="2256.9692" x2="43.6189" y2="2265.5784" gradientTransform="matrix(1 0 0 1 0 -2230)">
		<stop  offset="0" style="stop-color:#929496"/>
		<stop  offset="0.2152" style="stop-color:#929496"/>
		<stop  offset="0.4964" style="stop-color:#FFFFFF"/>
		<stop  offset="0.7033" style="stop-color:#929496"/>
		<stop  offset="1" style="stop-color:#000000"/>
	</linearGradient>
	<path class="st5" d="M46.9,32.1c-0.1,0.2-0.3,0.3-0.5,0.5s-0.5,0.3-0.8,0.4c-0.3,0.1-0.6,0.2-1,0.2s-0.8-0.1-1.2-0.2
		c-0.4-0.2-0.7-0.4-0.9-0.7c-0.3-0.3-0.5-0.7-0.6-1.1s-0.2-0.9-0.2-1.3c0-0.2,0-0.4,0-0.7c0-0.2,0.1-0.4,0.1-0.6h5v-0.2
		c0-0.3-0.1-0.5-0.2-0.8c-0.1-0.2-0.3-0.5-0.6-0.7c-0.2-0.2-0.5-0.3-0.9-0.5c-0.3-0.1-0.7-0.2-1.1-0.2s-0.9,0.1-1.3,0.2
		c-0.4,0.2-0.8,0.4-1.1,0.7c-0.3,0.3-0.6,0.7-0.8,1.1s-0.3,1-0.3,1.5s0.1,1,0.3,1.5c0.2,0.4,0.4,0.8,0.7,1.2
		c0.3,0.3,0.7,0.6,1.1,0.8s0.9,0.3,1.4,0.3c0.4,0,0.8-0.1,1.2-0.2c0.3-0.1,0.6-0.3,0.9-0.5s0.5-0.4,0.6-0.6c0.2-0.2,0.3-0.4,0.4-0.6
		H47C47.2,31.7,47.1,31.9,46.9,32.1z M42,28.4c0.2-0.6,0.4-1.1,0.8-1.4c0.4-0.4,0.8-0.5,1.4-0.5c0.3,0,0.5,0.1,0.8,0.2
		c0.2,0.1,0.4,0.3,0.6,0.4c0.2,0.2,0.3,0.4,0.4,0.6s0.1,0.5,0.1,0.8L42,28.4L42,28.4z"/>
	
		<linearGradient id="SVGID_6_" gradientUnits="userSpaceOnUse" x1="51.397" y1="2257.2065" x2="51.1286" y2="2265.8835" gradientTransform="matrix(1 0 0 1 0 -2230)">
		<stop  offset="0" style="stop-color:#929496"/>
		<stop  offset="0.2152" style="stop-color:#929496"/>
		<stop  offset="0.4964" style="stop-color:#FFFFFF"/>
		<stop  offset="0.7033" style="stop-color:#929496"/>
		<stop  offset="1" style="stop-color:#000000"/>
	</linearGradient>
	<path class="st6" d="M54.6,33.2c-0.1,0.1-0.3,0.1-0.4,0.1s-0.3,0-0.4-0.1S53.6,33,53.5,33s-0.1-0.3-0.1-0.5s0-0.5,0.1-0.7l0.6-2.6
		c0.1-0.4,0.1-0.7,0-1.1c-0.1-0.3-0.2-0.6-0.4-0.8c-0.2-0.2-0.4-0.4-0.7-0.5c-0.3-0.1-0.6-0.2-0.9-0.2s-0.6,0.1-0.9,0.2
		s-0.6,0.3-0.8,0.6c-0.2,0.2-0.4,0.5-0.6,0.9s-0.3,0.7-0.3,1.2v-2.7l-0.2-0.1h-1.4v0.1c0.2,0,0.4,0.1,0.5,0.2s0.2,0.4,0.2,0.7v4.7
		c0,0.4-0.1,0.7-0.2,1s-0.3,0.4-0.5,0.5v0.1h2.2v-0.1c-0.2-0.1-0.4-0.2-0.5-0.5s-0.2-0.6-0.2-1v-2.1c0-0.5,0.1-0.9,0.2-1.3
		s0.3-0.7,0.5-1s0.4-0.5,0.7-0.7c0.3-0.2,0.6-0.2,0.9-0.2s0.5,0.1,0.7,0.2s0.4,0.3,0.5,0.5s0.2,0.5,0.2,0.7c0,0.3,0,0.6-0.1,1
		l-0.6,2.5c-0.1,0.3-0.1,0.6,0,0.8s0.2,0.4,0.3,0.6c0.1,0.2,0.3,0.3,0.5,0.4c0.2,0.1,0.4,0.1,0.5,0.1c0.3,0,0.5-0.1,0.7-0.2
		s0.3-0.3,0.4-0.5L54.6,33.2C54.9,33,54.7,33.1,54.6,33.2z"/>
	
		<linearGradient id="SVGID_7_" gradientUnits="userSpaceOnUse" x1="56.8316" y1="2257.3745" x2="56.5631" y2="2266.0518" gradientTransform="matrix(1 0 0 1 0 -2230)">
		<stop  offset="0" style="stop-color:#929496"/>
		<stop  offset="0.2152" style="stop-color:#929496"/>
		<stop  offset="0.4964" style="stop-color:#FFFFFF"/>
		<stop  offset="0.7033" style="stop-color:#929496"/>
		<stop  offset="1" style="stop-color:#000000"/>
	</linearGradient>
	<path class="st7" d="M58.5,32.6c0,0.1-0.1,0.2-0.2,0.3s-0.2,0.2-0.3,0.2c-0.1,0.1-0.2,0.1-0.4,0.1c-0.2,0-0.4-0.1-0.5-0.3
		s-0.2-0.5-0.2-0.8v-5.6H58l0.1-0.1h-2.4c0.2,0,0.4-0.1,0.6-0.2s0.4-0.2,0.5-0.3c0.2-0.1,0.3-0.3,0.4-0.5s0.1-0.4,0.1-0.7h-0.8
		c0,0.3,0,0.6-0.1,0.8c0,0.2-0.1,0.4-0.2,0.5s-0.2,0.2-0.4,0.3c-0.1,0.1-0.3,0.1-0.6,0.1H55v0.1h0.1c0.3,0,0.5,0.1,0.7,0.3
		c0.2,0.2,0.3,0.5,0.3,0.9v4.6c0,0.4,0.1,0.7,0.3,1c0.2,0.2,0.5,0.4,0.8,0.4c0.2,0,0.4,0,0.6-0.1s0.3-0.2,0.4-0.3s0.2-0.3,0.3-0.4
		c0.1-0.1,0.1-0.2,0.1-0.3H58.5C58.6,32.4,58.6,32.5,58.5,32.6z"/>
	
		<linearGradient id="SVGID_8_" gradientUnits="userSpaceOnUse" x1="61.9679" y1="2257.5242" x2="61.7017" y2="2266.1331" gradientTransform="matrix(1 0 0 1 0 -2230)">
		<stop  offset="0" style="stop-color:#929496"/>
		<stop  offset="0.2152" style="stop-color:#929496"/>
		<stop  offset="0.4964" style="stop-color:#FFFFFF"/>
		<stop  offset="0.7033" style="stop-color:#929496"/>
		<stop  offset="1" style="stop-color:#000000"/>
	</linearGradient>
	<path class="st8" d="M65,32.1c-0.1,0.2-0.3,0.3-0.5,0.5S64,32.9,63.7,33c-0.3,0.1-0.6,0.2-1,0.2s-0.8-0.1-1.2-0.2
		c-0.4-0.2-0.7-0.4-0.9-0.7c-0.3-0.3-0.5-0.7-0.6-1.1s-0.2-0.9-0.2-1.3c0-0.2,0-0.4,0-0.7c0-0.2,0.1-0.4,0.1-0.6h5v-0.2
		c0-0.3-0.1-0.5-0.2-0.8c-0.1-0.2-0.3-0.5-0.6-0.7c-0.2-0.2-0.5-0.3-0.9-0.5c-0.3-0.1-0.7-0.2-1.1-0.2s-0.9,0.1-1.3,0.2
		c-0.4,0.2-0.8,0.4-1.1,0.7c-0.3,0.3-0.6,0.7-0.8,1.1c-0.2,0.4-0.3,1-0.3,1.5s0.1,1,0.3,1.5c0.2,0.4,0.4,0.8,0.7,1.2
		c0.3,0.3,0.7,0.6,1.1,0.8s0.9,0.3,1.4,0.3c0.4,0,0.8-0.1,1.2-0.2c0.3-0.1,0.6-0.3,0.9-0.5s0.5-0.4,0.6-0.6c0.2-0.2,0.3-0.4,0.4-0.6
		h-0.1C65.3,31.7,65.2,31.9,65,32.1z M60.1,28.4c0.2-0.6,0.4-1.1,0.8-1.4c0.4-0.4,0.8-0.5,1.4-0.5c0.3,0,0.5,0.1,0.8,0.2
		c0.2,0.1,0.4,0.3,0.6,0.4c0.2,0.2,0.3,0.4,0.4,0.6s0.1,0.5,0.1,0.8L60.1,28.4L60.1,28.4z"/>
	
		<linearGradient id="SVGID_9_" gradientUnits="userSpaceOnUse" x1="68.1588" y1="2257.7249" x2="67.8904" y2="2266.4019" gradientTransform="matrix(1 0 0 1 0 -2230)">
		<stop  offset="0" style="stop-color:#929496"/>
		<stop  offset="0.2152" style="stop-color:#929496"/>
		<stop  offset="0.4964" style="stop-color:#FFFFFF"/>
		<stop  offset="0.7033" style="stop-color:#929496"/>
		<stop  offset="1" style="stop-color:#000000"/>
	</linearGradient>
	<path class="st9" d="M70.4,26.7c-0.2-0.2-0.5-0.3-0.9-0.3c-0.3,0-0.5,0.1-0.8,0.2c-0.2,0.1-0.4,0.3-0.6,0.5s-0.3,0.4-0.4,0.7
		c-0.1,0.3-0.2,0.5-0.3,0.8v-2.1l-0.2-0.1h-1.4v0.1c0.2,0,0.4,0.1,0.5,0.2s0.2,0.4,0.2,0.7v4.7c0,0.4-0.1,0.7-0.2,1
		s-0.3,0.4-0.5,0.5v0.1H68v-0.1c-0.2-0.1-0.4-0.2-0.5-0.5s-0.2-0.6-0.2-1v-2.9c0-0.2,0-0.4,0.1-0.7c0.1-0.3,0.2-0.5,0.4-0.8
		c0.2-0.2,0.3-0.4,0.5-0.6S68.7,27,69,27c0.5,0,0.8,0.4,0.8,1.2l0.8-0.4C70.7,27.2,70.6,26.9,70.4,26.7z"/>
	<g>
		
			<linearGradient id="SVGID_10_" gradientUnits="userSpaceOnUse" x1="26.0637" y1="2249.4561" x2="26.0637" y2="2254.7537" gradientTransform="matrix(1 0 0 1 0 -2230)">
			<stop  offset="0" style="stop-color:#929496"/>
			<stop  offset="0.2152" style="stop-color:#929496"/>
			<stop  offset="0.4964" style="stop-color:#FFFFFF"/>
			<stop  offset="0.7033" style="stop-color:#929496"/>
			<stop  offset="1" style="stop-color:#000000"/>
		</linearGradient>
		<path class="st10" d="M25.1,24.5h1.6c0.3,0,0.5,0,0.7-0.1s0.4-0.2,0.5-0.3c0.1-0.1,0.2-0.3,0.3-0.4s0.1-0.2,0.2-0.3l0,0l-0.5,1.3
			h-4.1v-0.1c0.4-0.1,0.6-0.3,0.6-0.8v-5.5c0-0.5-0.2-0.8-0.6-0.8v-0.1h1.8v0.1c-0.4,0-0.6,0.3-0.6,0.8L25.1,24.5L25.1,24.5z"/>
		
			<linearGradient id="SVGID_11_" gradientUnits="userSpaceOnUse" x1="35.7637" y1="2249.4561" x2="35.7637" y2="2254.7537" gradientTransform="matrix(1 0 0 1 0 -2230)">
			<stop  offset="0" style="stop-color:#929496"/>
			<stop  offset="0.2152" style="stop-color:#929496"/>
			<stop  offset="0.4964" style="stop-color:#FFFFFF"/>
			<stop  offset="0.7033" style="stop-color:#929496"/>
			<stop  offset="1" style="stop-color:#000000"/>
		</linearGradient>
		<path class="st11" d="M37.4,20.6c0,0.3-0.1,0.5-0.3,0.7s-0.4,0.3-0.7,0.5c-0.3,0.1-0.6,0.2-0.9,0.3c-0.3,0.1-0.6,0.2-0.9,0.3
			c-0.3,0.1-0.5,0.3-0.7,0.4c-0.2,0.2-0.3,0.4-0.3,0.7c0,0.3,0.1,0.5,0.3,0.6c0.2,0.2,0.4,0.2,0.8,0.2c0.3,0,0.5-0.1,0.8-0.2
			c0.2-0.1,0.5-0.3,0.7-0.4c0.2-0.2,0.4-0.4,0.5-0.6s0.2-0.5,0.3-0.7l0.7-0.4v1.9c0,0.1,0,0.2,0.1,0.3c0,0.1,0.1,0.1,0.2,0.1
			c0.1,0,0.1,0,0.2-0.1c0.1-0.1,0.1-0.2,0.1-0.3l0,0V24c0,0.1-0.1,0.1-0.1,0.2s-0.1,0.1-0.2,0.2c-0.1,0.1-0.2,0.1-0.3,0.1
			c-0.2,0-0.3-0.1-0.4-0.2c-0.1-0.1-0.2-0.3-0.2-0.5v-1c-0.2,0.6-0.5,1-0.9,1.3s-0.9,0.5-1.5,0.5c-0.4,0-0.8-0.1-1-0.3
			c-0.3-0.2-0.4-0.4-0.4-0.7c0-0.3,0.1-0.5,0.3-0.6c0.2-0.2,0.4-0.3,0.7-0.4s0.6-0.2,0.9-0.3c0.3-0.1,0.7-0.2,0.9-0.3
			c0.3-0.1,0.5-0.3,0.7-0.5s0.3-0.5,0.3-0.8c0-0.2,0-0.4-0.1-0.6s-0.2-0.3-0.3-0.4s-0.3-0.2-0.5-0.3c-0.2-0.1-0.4-0.1-0.6-0.1
			c-0.2,0-0.4,0-0.6,0.1c-0.2,0.1-0.3,0.1-0.5,0.2c-0.1,0.1-0.3,0.2-0.4,0.4c-0.1,0.1-0.2,0.3-0.2,0.4h-0.1c0-0.1,0.1-0.3,0.2-0.4
			c0.1-0.2,0.2-0.3,0.4-0.4s0.4-0.2,0.6-0.3c0.2-0.1,0.5-0.1,0.7-0.1c0.3,0,0.5,0,0.8,0.1c0.2,0.1,0.5,0.2,0.6,0.3
			c0.2,0.1,0.3,0.3,0.4,0.5C37.4,20.2,37.4,20.4,37.4,20.6z"/>
		
			<linearGradient id="SVGID_12_" gradientUnits="userSpaceOnUse" x1="44.3637" y1="2249.4561" x2="44.3637" y2="2254.7537" gradientTransform="matrix(1 0 0 1 0 -2230)">
			<stop  offset="0" style="stop-color:#929496"/>
			<stop  offset="0.2152" style="stop-color:#929496"/>
			<stop  offset="0.4964" style="stop-color:#FFFFFF"/>
			<stop  offset="0.7033" style="stop-color:#929496"/>
			<stop  offset="1" style="stop-color:#000000"/>
		</linearGradient>
		<path class="st12" d="M44.5,19c0.2,0,0.5,0,0.7,0.1s0.4,0.1,0.6,0.2s0.3,0.2,0.4,0.4c0.1,0.1,0.1,0.3,0.1,0.4s0,0.2-0.1,0.3
			c-0.1,0.1-0.1,0.1-0.2,0.1s-0.2,0-0.3-0.1c-0.1-0.1-0.1-0.2-0.2-0.3c-0.1-0.1-0.1-0.2-0.2-0.3c-0.1-0.1-0.1-0.2-0.2-0.3
			c-0.1-0.1-0.2-0.2-0.3-0.3c-0.1-0.1-0.3-0.1-0.5-0.1c-0.1,0-0.3,0-0.4,0.1c-0.1,0-0.2,0.1-0.3,0.2c-0.1,0.1-0.2,0.2-0.2,0.3
			c-0.1,0.1-0.1,0.2-0.1,0.3c0,0.2,0.1,0.4,0.2,0.6c0.2,0.2,0.4,0.3,0.6,0.4s0.5,0.3,0.8,0.4s0.5,0.3,0.8,0.4
			c0.2,0.2,0.4,0.3,0.6,0.6c0.2,0.2,0.2,0.5,0.2,0.8c0,0.2,0,0.4-0.1,0.6s-0.2,0.4-0.4,0.5c-0.2,0.1-0.4,0.3-0.6,0.3
			c-0.2,0.1-0.5,0.1-0.9,0.1c-0.3,0-0.5,0-0.7-0.1s-0.4-0.1-0.6-0.2s-0.3-0.1-0.4-0.2s-0.2-0.1-0.3-0.1c-0.1,0-0.1,0-0.2,0.1l0,0
			c0.2-0.3,0.3-0.6,0.3-1c0.1-0.4,0.1-0.8,0.1-1.2h0.1c0,0.3,0.1,0.5,0.1,0.8s0.1,0.6,0.2,0.8c0.1,0.2,0.3,0.5,0.5,0.6
			c0.2,0.2,0.5,0.2,0.9,0.2c0.2,0,0.4,0,0.6-0.1s0.4-0.1,0.5-0.2s0.3-0.2,0.4-0.4c0.1-0.1,0.1-0.3,0.1-0.5s-0.1-0.5-0.3-0.6
			c-0.2-0.2-0.4-0.3-0.6-0.5c-0.3-0.1-0.5-0.3-0.8-0.4s-0.6-0.3-0.8-0.4c-0.3-0.2-0.5-0.3-0.6-0.5c-0.2-0.2-0.3-0.4-0.3-0.7
			c0-0.4,0.2-0.7,0.5-0.9C43.6,19.1,44,19,44.5,19z"/>
		
			<linearGradient id="SVGID_13_" gradientUnits="userSpaceOnUse" x1="53.6637" y1="2249.4561" x2="53.6637" y2="2254.7537" gradientTransform="matrix(1 0 0 1 0 -2230)">
			<stop  offset="0" style="stop-color:#929496"/>
			<stop  offset="0.2152" style="stop-color:#929496"/>
			<stop  offset="0.4964" style="stop-color:#FFFFFF"/>
			<stop  offset="0.7033" style="stop-color:#929496"/>
			<stop  offset="1" style="stop-color:#000000"/>
		</linearGradient>
		<path class="st13" d="M51.9,21.7c0,0.4,0.1,0.7,0.2,1s0.3,0.6,0.5,0.8c0.2,0.2,0.4,0.4,0.7,0.5c0.3,0.1,0.6,0.2,0.9,0.2
			s0.5,0,0.7-0.1s0.4-0.2,0.6-0.3c0.2-0.1,0.3-0.3,0.4-0.4s0.2-0.3,0.2-0.4h0.1c-0.1,0.1-0.1,0.3-0.3,0.5c-0.1,0.2-0.3,0.3-0.5,0.5
			c-0.2,0.1-0.4,0.3-0.7,0.4c-0.3,0.1-0.6,0.1-0.9,0.1c-0.4,0-0.7-0.1-1.1-0.2c-0.3-0.1-0.6-0.3-0.8-0.6c-0.2-0.3-0.4-0.6-0.5-0.9
			s-0.2-0.7-0.2-1.1s0.1-0.8,0.2-1.2c0.1-0.3,0.3-0.6,0.6-0.9c0.2-0.2,0.5-0.4,0.8-0.5s0.6-0.2,1-0.2c0.3,0,0.6,0,0.8,0.1
			c0.3,0.1,0.5,0.2,0.7,0.4c0.2,0.1,0.3,0.3,0.4,0.5s0.2,0.4,0.2,0.6v0.3h-3.8c0,0.1-0.1,0.3-0.1,0.5C51.9,21.4,51.9,21.5,51.9,21.7
			z M52,20.7h3.2c0-0.2,0-0.4-0.1-0.6s-0.2-0.3-0.3-0.5c-0.1-0.1-0.3-0.3-0.5-0.3c-0.2-0.1-0.4-0.1-0.6-0.1c-0.4,0-0.8,0.1-1.1,0.4
			C52.3,19.8,52.1,20.2,52,20.7L52,20.7z"/>
		
			<linearGradient id="SVGID_14_" gradientUnits="userSpaceOnUse" x1="62.3637" y1="2249.4561" x2="62.3637" y2="2254.7537" gradientTransform="matrix(1 0 0 1 0 -2230)">
			<stop  offset="0" style="stop-color:#929496"/>
			<stop  offset="0.2152" style="stop-color:#929496"/>
			<stop  offset="0.4964" style="stop-color:#FFFFFF"/>
			<stop  offset="0.7033" style="stop-color:#929496"/>
			<stop  offset="1" style="stop-color:#000000"/>
		</linearGradient>
		<path class="st14" d="M63.7,20.3c0-0.6-0.2-0.9-0.6-0.9c-0.2,0-0.4,0.1-0.5,0.2c-0.2,0.1-0.3,0.3-0.4,0.5s-0.2,0.4-0.3,0.6
			c-0.1,0.2-0.1,0.4-0.1,0.5v2.3c0,0.3,0,0.5,0.1,0.7s0.2,0.3,0.4,0.4v0.1h-1.7v-0.1c0.2-0.1,0.3-0.2,0.4-0.4
			c0.1-0.2,0.1-0.5,0.1-0.7v-3.7c0-0.3-0.1-0.4-0.2-0.5s-0.2-0.1-0.4-0.2V19h1.1l0.1,0.1v1.7c0-0.2,0.1-0.4,0.2-0.6s0.2-0.4,0.3-0.5
			c0.1-0.2,0.3-0.3,0.5-0.4s0.4-0.2,0.6-0.2c0.3,0,0.5,0.1,0.7,0.3c0.2,0.2,0.3,0.4,0.3,0.6L63.7,20.3z"/>
	</g>
	
		<linearGradient id="SVGID_15_" gradientUnits="userSpaceOnUse" x1="12.9746" y1="2255.7231" x2="12.931" y2="2260.2104" gradientTransform="matrix(1 0 0 1 0 -2230)">
		<stop  offset="0" style="stop-color:#929496"/>
		<stop  offset="0.2152" style="stop-color:#929496"/>
		<stop  offset="0.4964" style="stop-color:#FFFFFF"/>
		<stop  offset="0.7033" style="stop-color:#929496"/>
		<stop  offset="1" style="stop-color:#000000"/>
	</linearGradient>
	<path class="st15" d="M13.8,24c-0.2,0.4-0.3,0.7-0.5,1.1c-0.2,0.6-0.4,1.3-0.4,1.9c-0.1,0.5-0.1,1-0.1,1.6c0,0.5,0.1,0.9,0.3,1.4
		c0.1,0.1,0.1,0.3,0.1,0.5s-0.2,0.4-0.5,0.4s-0.5-0.2-0.5-0.4c0-0.1,0-0.2,0-0.3c0-0.2,0-0.4,0-0.6c0-1.2,0.2-2.5,0.6-3.6
		C13.1,25.3,13.4,24.7,13.8,24C13.8,24.1,13.8,24,13.8,24L13.8,24z"/>
	<path class="st0" d="M11.8,25.8c0,0.4,0,0.7,0,1c0,0.5-0.2,0.8-0.6,1.1c-0.8,0.6-1.1,1.5-0.9,2.5c0.2,1,0.9,1.7,1.9,1.9
		c1.1,0.3,2.3-0.2,2.9-1.3c0.5-1,0.4-2.3-0.6-3.1c-0.8-0.6-0.7-1.3-0.7-2.2c0.4,0.5,0.9,0.8,1.3,1.1c1.2,0.9,1.7,2.5,1.3,3.9
		c-0.4,1.6-1.5,2.5-3.2,2.8c-1.3,0.2-2.8-0.5-3.6-1.7c-1-1.6-0.7-3.6,0.9-4.9C11,26.6,11.5,26.3,11.8,25.8z"/>
</g>
</svg>
